<?xml version="1.0" standalone="no"?>
<!DOCTYPE svg PUBLIC "-//W3C//DTD SVG 20010904//EN"
 "http://www.w3.org/TR/2001/REC-SVG-20010904/DTD/svg10.dtd">
<svg version="1.0" xmlns="http://www.w3.org/2000/svg"
 width="1500.000000pt" height="1500.000000pt" viewBox="0 0 1500.000000 1500.000000"
 preserveAspectRatio="xMidYMid meet">
<metadata>
Created by potrace 1.10, written by Peter Selinger 2001-2011
</metadata>
<g transform="translate(0.000000,1500.000000) scale(0.100000,-0.100000)"
fill="#000000" stroke="none">
<path d="M13373 8329 c-2 -5893 -4 -6674 -17 -6694 -13 -20 -26 -24 -108 -29
-51 -4 -2921 -5 -6378 -4 -3457 2 -6417 2 -6577 0 l-293 -3 0 -54 0 -55 6745
0 6745 0 0 6755 0 6755 -58 0 -57 0 -2 -6671z"/>
<path d="M4065 12239 c-62 -24 -164 -48 -230 -54 -27 -2 -65 -7 -82 -10 -18
-3 -68 -10 -110 -16 -43 -5 -100 -14 -128 -19 -77 -15 -222 -39 -303 -50 -40
-5 -78 -12 -85 -17 -6 -4 -32 -11 -57 -15 -48 -8 -100 -18 -190 -38 -30 -7
-84 -18 -120 -25 -36 -8 -107 -25 -158 -39 -51 -14 -128 -35 -170 -46 -42 -12
-126 -36 -187 -55 -203 -62 -290 -87 -345 -102 -30 -8 -70 -23 -88 -34 -18
-10 -39 -19 -47 -19 -15 0 -166 -63 -292 -121 -224 -104 -359 -257 -355 -401
2 -87 74 -214 157 -277 185 -140 313 -234 385 -284 104 -70 356 -260 448 -336
210 -175 251 -215 379 -366 95 -113 240 -324 303 -441 18 -32 41 -71 51 -86
11 -14 19 -30 19 -34 0 -8 30 -73 70 -154 10 -19 27 -64 39 -99 12 -35 37
-103 55 -150 34 -87 113 -387 121 -458 2 -21 10 -65 18 -98 8 -33 19 -98 26
-145 6 -47 16 -119 22 -160 6 -41 12 -88 15 -105 19 -137 25 -487 12 -720 -4
-71 -10 -193 -13 -270 -4 -77 -10 -167 -15 -199 -5 -32 -8 -62 -6 -65 3 -3 -2
-86 -9 -183 -19 -258 -7 -321 73 -385 84 -68 135 -68 208 -1 70 65 95 129 109
288 14 167 26 189 75 138 17 -18 38 -46 46 -61 9 -16 30 -48 47 -72 18 -24 44
-61 59 -82 140 -199 235 -308 293 -334 22 -10 63 -19 93 -19 35 0 52 -4 52
-12 0 -7 -20 -44 -45 -81 -37 -57 -45 -77 -45 -116 0 -41 5 -53 35 -84 42 -43
73 -53 115 -38 31 10 184 114 195 131 4 6 29 10 56 10 47 0 53 3 99 50 58 57
64 90 28 149 -44 75 -192 207 -261 234 -9 3 -23 22 -31 42 -8 19 -20 35 -25
35 -6 0 -17 12 -25 28 -8 15 -56 84 -108 154 -92 125 -109 150 -158 233 -14
24 -40 67 -57 98 -18 30 -33 58 -33 63 0 5 -15 33 -34 61 -19 29 -37 61 -41
73 -14 44 -58 110 -110 164 -43 46 -61 58 -87 59 -42 2 -44 15 -29 167 6 63
18 180 26 260 8 80 20 195 25 255 6 61 16 142 22 180 6 39 11 81 11 95 0 14 6
70 13 125 7 55 20 166 29 246 9 81 25 189 36 240 11 52 25 153 30 224 16 201
27 290 79 610 5 33 23 142 39 242 16 100 35 194 43 210 12 25 18 27 55 25 55
-4 105 23 168 89 161 172 397 405 440 436 28 20 64 49 80 64 40 38 154 118
240 170 39 23 84 52 100 65 32 24 251 135 350 177 105 45 281 105 352 120 37
8 88 22 113 30 25 9 83 25 130 36 47 11 105 28 130 37 85 33 716 22 935 -17
94 -16 244 -49 315 -69 36 -11 90 -24 120 -30 30 -6 71 -20 90 -30 19 -10 58
-26 85 -36 28 -9 68 -24 90 -34 22 -10 86 -37 142 -60 55 -23 109 -50 118 -60
9 -10 27 -21 40 -24 13 -3 53 -26 90 -51 36 -25 69 -45 73 -45 32 0 345 -244
480 -375 177 -170 385 -426 471 -578 38 -67 85 -140 136 -211 19 -27 35 -54
35 -60 -1 -15 -38 -56 -82 -90 -62 -47 -157 -181 -189 -266 -39 -106 -63 -144
-139 -220 -97 -97 -180 -145 -230 -133 -29 7 -39 17 -60 58 -22 45 -24 63 -27
213 -3 162 -6 186 -24 249 -21 67 -117 143 -182 143 -49 0 -127 -43 -178 -97
-22 -24 -43 -43 -47 -43 -4 0 -16 -18 -26 -40 -11 -22 -23 -40 -27 -40 -4 0
-11 -9 -14 -21 -8 -24 -73 -99 -86 -99 -16 0 -10 48 10 82 11 18 25 56 32 83
6 28 17 59 24 70 20 33 26 100 12 131 -22 51 -71 111 -104 129 -74 41 -202 4
-272 -77 -43 -50 -95 -134 -104 -168 -4 -14 -21 -49 -38 -78 -44 -77 -65 -83
-252 -80 l-152 3 -7 40 c-24 144 -27 156 -64 201 -46 56 -80 74 -137 74 -35 0
-53 -7 -85 -32 -50 -41 -92 -91 -92 -111 0 -8 -7 -33 -15 -56 -8 -23 -19 -81
-26 -129 -20 -162 -29 -181 -127 -273 -108 -102 -165 -139 -214 -139 -35 0
-38 3 -64 58 -26 54 -28 67 -34 247 -4 105 -12 201 -17 215 -15 36 -90 118
-124 135 -39 21 -103 19 -147 -4 -50 -26 -149 -132 -248 -268 -42 -59 -64 -76
-64 -53 0 9 25 78 70 190 13 33 22 81 23 120 2 60 -1 69 -33 112 -35 47 -116
98 -155 98 -59 -1 -153 -57 -209 -124 -53 -65 -123 -210 -159 -331 -28 -94
-55 -140 -123 -213 -76 -80 -183 -152 -227 -152 -66 0 -127 129 -127 269 0 79
14 117 56 150 42 33 86 107 86 146 0 48 -52 134 -116 193 -72 65 -156 97 -251
96 -91 0 -140 -15 -214 -65 -273 -182 -500 -626 -478 -931 10 -127 14 -136 89
-210 97 -94 174 -112 273 -63 65 31 111 74 168 155 56 81 79 102 101 94 9 -3
16 -10 16 -14 0 -4 34 -36 76 -70 191 -158 321 -172 588 -62 37 16 39 16 58
-8 10 -13 22 -28 26 -35 15 -25 122 -104 157 -115 127 -42 286 51 438 255 96
129 107 131 161 37 59 -101 103 -149 186 -200 l75 -47 124 0 125 0 8 -30 c10
-35 1 -117 -17 -162 -9 -20 -12 -61 -10 -115 3 -46 -2 -127 -9 -181 -13 -89
-18 -104 -60 -166 -55 -83 -61 -96 -75 -191 -14 -88 -4 -166 36 -273 25 -66
25 -75 20 -230 -7 -182 -10 -222 -31 -368 -8 -57 -18 -135 -21 -174 -4 -38
-14 -104 -21 -145 -8 -41 -15 -97 -15 -125 -1 -27 -5 -58 -11 -68 -5 -10 -15
-59 -23 -110 -20 -130 -72 -388 -86 -423 -6 -16 -15 -54 -19 -84 -5 -30 -13
-73 -19 -95 -6 -22 -11 -64 -11 -94 0 -61 22 -99 87 -148 l36 -28 256 -2 c141
-1 293 -2 337 -3 45 0 110 6 145 14 57 13 69 21 112 67 65 72 64 83 -7 379
-62 260 -105 506 -145 825 -12 94 -26 189 -31 213 -6 24 -8 47 -5 52 3 4 -4
99 -16 211 -20 207 -19 260 9 314 23 45 36 128 36 240 1 130 -17 183 -90 263
-71 79 -84 112 -84 215 0 82 11 137 34 166 6 8 11 24 11 35 0 19 5 21 51 18
62 -4 112 18 165 75 41 43 57 82 70 168 20 146 30 182 73 271 25 52 51 94 57
94 6 0 22 8 35 19 29 22 92 22 145 -2 36 -16 36 -16 49 -109 7 -51 14 -102 15
-113 5 -52 51 -139 94 -177 129 -113 272 -99 416 41 82 80 105 106 154 178 60
88 93 94 125 23 25 -57 113 -163 167 -200 55 -38 154 -70 215 -70 50 0 172 39
256 81 32 16 93 56 137 89 44 33 96 67 115 77 33 15 38 15 69 1 49 -25 197
-166 197 -189 0 -34 -31 -81 -103 -159 -113 -122 -252 -309 -299 -404 -17 -34
-34 -69 -40 -79 -52 -101 -74 -314 -43 -418 22 -71 96 -164 158 -196 67 -36
149 -47 234 -33 40 6 78 8 84 5 17 -11 1 -90 -33 -164 -152 -329 -215 -441
-348 -621 -22 -30 -52 -73 -67 -95 -16 -22 -47 -66 -70 -99 -37 -50 -43 -65
-43 -108 0 -78 62 -156 167 -209 93 -48 162 -3 348 223 30 36 55 70 55 75 0 4
17 33 38 63 56 81 187 304 217 370 9 19 29 60 45 90 48 93 115 262 156 395 9
28 22 66 29 85 57 156 68 411 20 459 -13 14 -15 10 -15 -31 0 -28 -6 -50 -15
-58 -8 -7 -15 -25 -15 -40 0 -16 -9 -52 -19 -82 -11 -29 -27 -80 -36 -113 -9
-33 -20 -71 -25 -85 -5 -14 -18 -59 -31 -100 -35 -119 -118 -330 -150 -380 -5
-8 -12 -22 -15 -30 -3 -8 -9 -22 -14 -30 -5 -8 -32 -60 -61 -115 -28 -55 -64
-118 -78 -140 -14 -22 -30 -48 -36 -57 -55 -90 -300 -419 -321 -431 -11 -6
-29 4 -63 36 -26 25 -62 52 -79 61 -39 20 -35 34 28 101 133 140 303 397 422
639 42 85 138 316 138 333 0 32 44 100 102 157 61 61 135 161 170 231 26 52
46 99 53 122 3 12 15 25 26 28 19 6 19 8 4 32 -17 26 -17 29 11 103 43 117 66
261 63 410 -2 69 -6 133 -11 142 -12 25 13 78 59 124 46 46 114 101 146 117
13 7 36 22 52 35 93 73 189 142 199 143 6 0 58 37 115 82 118 93 176 169 166
220 -17 93 -157 176 -233 138 -9 -5 -33 -16 -52 -25 -60 -29 -98 -52 -142 -85
-37 -28 -117 -81 -227 -153 -50 -32 -61 -28 -87 36 -13 33 -24 70 -24 84 0 13
-11 46 -25 74 -14 27 -25 54 -25 60 0 6 -27 41 -61 79 -58 65 -89 83 -104 58
-9 -14 -34 20 -35 46 0 11 -11 38 -25 60 -32 52 -31 76 3 116 23 28 27 42 27
94 0 95 -83 248 -319 590 -11 17 -33 44 -48 60 -15 17 -39 49 -55 71 -67 99
-338 373 -497 503 -67 54 -84 67 -217 160 -35 25 -66 47 -69 50 -3 3 -17 13
-32 21 -45 25 -200 119 -248 150 -25 17 -52 32 -60 36 -8 3 -23 10 -32 15 -10
5 -22 9 -28 9 -5 0 -38 14 -72 31 -90 44 -295 126 -348 139 -97 24 -156 42
-183 56 -16 8 -42 14 -57 14 -16 0 -53 9 -82 19 -29 10 -78 22 -108 25 -30 3
-84 10 -120 16 -36 6 -90 13 -120 16 -30 3 -57 7 -61 10 -36 22 -475 21 -561
-1 -22 -6 -31 -1 -55 26 -101 119 -241 189 -438 219 -27 5 -81 16 -120 25 -38
9 -83 18 -100 20 -16 2 -88 13 -160 24 -202 32 -577 81 -584 77 -3 -2 -44 3
-91 10 -58 10 -168 15 -341 15 -141 0 -280 4 -310 10 -100 20 -160 19 -214 -2z
m157 -95 l37 -26 333 -2 c334 -2 430 -9 679 -51 47 -8 101 -15 120 -15 19 0
50 -5 69 -10 19 -6 73 -15 120 -20 47 -5 110 -15 140 -21 136 -27 208 -42 240
-50 19 -5 67 -16 105 -25 98 -23 220 -71 255 -101 23 -19 30 -33 30 -61 -1
-54 -19 -72 -71 -72 -24 1 -55 7 -69 15 -14 8 -35 14 -46 15 -12 0 -35 7 -50
15 -16 8 -43 15 -60 15 -17 0 -48 7 -67 15 -20 8 -52 15 -70 15 -19 0 -47 4
-63 10 -16 5 -58 14 -94 20 -36 5 -108 17 -160 25 -148 24 -384 53 -630 76
-177 17 -255 20 -365 14 -77 -4 -187 -9 -244 -11 -58 -2 -109 -8 -113 -12 -5
-5 -15 -45 -23 -88 -15 -83 -45 -245 -71 -379 -8 -44 -19 -107 -24 -140 -12
-80 -28 -167 -46 -242 -8 -34 -14 -74 -14 -90 0 -15 -7 -50 -15 -77 -8 -27
-15 -66 -15 -87 0 -21 -5 -50 -11 -66 -6 -15 -14 -55 -19 -88 -10 -75 -28
-175 -42 -239 -6 -26 -14 -74 -18 -105 -7 -50 -32 -205 -75 -451 -8 -47 -21
-132 -30 -190 -9 -58 -22 -141 -30 -185 -8 -44 -15 -98 -15 -120 0 -22 -5 -57
-11 -78 -5 -20 -14 -79 -19 -130 -9 -95 -23 -202 -41 -322 -6 -38 -15 -104
-19 -145 -5 -41 -16 -129 -24 -195 -9 -66 -23 -187 -31 -270 -8 -82 -19 -188
-25 -235 -13 -116 -30 -283 -40 -415 -5 -60 -14 -134 -20 -164 -5 -29 -10 -79
-10 -110 0 -31 -7 -94 -15 -141 -8 -47 -15 -110 -15 -140 0 -30 -7 -95 -15
-145 -8 -49 -15 -119 -15 -155 0 -36 -7 -101 -15 -145 -8 -44 -15 -111 -15
-150 -1 -169 -73 -258 -155 -193 -27 21 -27 23 -21 102 5 77 15 231 53 846 21
337 20 581 -1 765 -10 77 -21 176 -26 219 -5 44 -14 100 -19 125 -16 72 -32
152 -40 206 -8 52 -23 114 -46 200 -8 28 -16 61 -19 75 -2 14 -9 41 -16 60
-18 53 -30 91 -45 140 -20 70 -71 211 -95 266 -34 76 -119 246 -140 279 -11
17 -23 37 -27 46 -43 91 -289 429 -393 543 -125 135 -475 418 -786 637 -46 32
-122 86 -170 119 -47 33 -90 65 -97 70 -7 6 -42 32 -78 59 -89 67 -130 132
-132 209 -1 52 2 63 32 101 58 73 174 152 306 207 17 7 55 24 85 37 30 14 78
34 105 45 58 24 315 107 362 117 18 3 35 11 38 16 4 5 17 9 31 9 14 0 35 5 47
12 12 6 38 15 57 19 19 4 49 12 65 17 17 6 57 18 90 27 33 9 83 23 110 31 57
16 283 69 335 78 19 4 53 11 75 16 37 8 97 20 270 55 39 7 97 19 130 26 33 6
89 15 125 19 36 3 92 12 125 18 110 20 199 33 306 42 125 11 152 20 186 60 32
38 73 40 125 4z m833 -354 c50 -6 140 -18 200 -26 61 -8 128 -16 151 -18 58
-4 194 -38 194 -47 0 -14 -80 -55 -180 -93 -137 -53 -278 -116 -330 -148 -25
-15 -58 -35 -75 -44 -43 -24 -285 -174 -320 -198 -16 -12 -51 -38 -78 -58 -27
-21 -53 -38 -59 -38 -9 0 -40 -26 -231 -192 -55 -49 -104 -88 -110 -88 -6 0
-19 -7 -29 -17 -17 -15 -18 -15 -20 8 -3 56 28 244 82 484 6 28 12 66 14 85 4
41 10 73 37 200 12 52 23 105 25 117 2 12 15 35 28 50 21 24 34 29 98 35 101
9 493 1 603 -12z m1905 -81 c36 -6 106 -14 155 -19 158 -16 358 -56 480 -94
44 -14 105 -33 135 -42 69 -20 127 -42 162 -60 14 -8 32 -14 39 -14 7 0 40
-13 73 -29 34 -16 108 -52 166 -79 143 -66 349 -193 515 -316 117 -87 199
-159 406 -357 40 -39 196 -220 262 -304 66 -85 267 -394 267 -411 0 -2 29 -53
65 -113 36 -60 65 -114 65 -120 0 -18 -23 -24 -34 -9 -6 8 -31 22 -55 32 -37
14 -51 15 -96 5 -29 -6 -60 -9 -68 -6 -8 3 -27 30 -41 59 -15 29 -30 60 -35
68 -6 8 -41 67 -80 131 -302 498 -824 954 -1366 1194 -16 7 -56 25 -87 39
-126 58 -508 170 -630 186 -31 4 -61 11 -68 15 -6 4 -51 11 -98 15 -48 5 -125
14 -172 20 -97 14 -483 8 -540 -8 -19 -6 -78 -13 -130 -17 -52 -3 -108 -10
-125 -15 -27 -8 -74 -17 -190 -40 -124 -23 -323 -86 -455 -142 -99 -41 -162
-69 -180 -79 -8 -4 -51 -26 -95 -49 -121 -61 -318 -185 -410 -258 -5 -4 -39
-30 -75 -57 -36 -27 -83 -65 -105 -86 -146 -133 -179 -164 -238 -225 -94 -99
-161 -185 -213 -275 -25 -44 -49 -79 -54 -79 -4 0 -13 7 -21 16 -11 13 -9 27
9 82 35 109 50 172 62 262 l12 85 147 146 c80 80 201 186 268 237 112 84 339
242 349 242 3 0 21 11 42 23 45 29 177 101 240 132 108 52 182 85 193 85 6 0
23 6 37 14 38 20 96 41 182 66 41 12 98 29 125 37 81 25 110 26 182 9 37 -9
91 -22 118 -27 28 -6 76 -18 107 -26 77 -21 205 -11 261 20 39 22 77 84 77
126 0 20 5 21 198 21 108 0 226 -5 262 -11z m-2256 -1954 c107 -28 207 -127
208 -206 0 -24 -5 -45 -13 -51 -26 -17 -79 0 -127 42 -90 80 -141 83 -226 17
-33 -26 -146 -166 -146 -181 0 -3 -13 -24 -28 -48 -55 -84 -103 -206 -138
-346 -28 -113 10 -125 65 -20 12 24 31 58 41 76 11 18 43 76 71 130 68 128
134 237 176 290 41 50 76 55 120 18 26 -23 27 -27 34 -162 8 -156 19 -218 47
-284 41 -97 102 -143 188 -142 92 1 191 60 315 189 83 86 129 146 129 168 0
28 85 277 112 325 71 131 131 179 200 159 42 -12 52 -19 67 -46 17 -34 13 -58
-19 -113 -16 -28 -30 -53 -30 -55 0 -3 -14 -35 -31 -72 -74 -166 -86 -201
-121 -358 -10 -49 -20 -126 -21 -170 -2 -79 -2 -80 24 -83 34 -4 80 50 225
263 59 88 126 185 148 216 23 31 61 89 85 129 84 135 172 159 219 60 7 -16 13
-101 15 -235 3 -187 5 -218 26 -280 32 -95 82 -145 147 -145 55 0 115 29 214
105 76 58 227 197 244 225 6 8 15 80 22 160 22 252 54 323 138 299 49 -14 69
-45 63 -99 -3 -25 -10 -108 -17 -185 -6 -77 -12 -149 -13 -160 -3 -30 31 -31
55 0 73 93 123 108 335 102 87 -3 171 -7 187 -9 26 -3 30 1 38 32 16 68 32
115 45 135 7 11 13 25 13 31 0 15 35 90 60 129 11 17 24 39 29 50 23 52 100
89 154 74 41 -11 52 -23 62 -66 5 -27 -2 -50 -39 -125 -113 -233 -173 -437
-178 -608 -3 -92 -2 -95 20 -98 26 -4 67 36 127 124 22 33 42 61 45 64 3 3 56
79 116 170 203 301 218 322 249 346 42 32 85 31 116 -2 23 -25 24 -31 30 -237
7 -225 14 -274 47 -350 80 -179 220 -140 508 140 l101 98 7 60 c8 67 49 161
96 217 37 45 143 128 162 128 8 0 23 7 34 15 24 18 103 19 126 1 37 -28 49
-105 22 -144 -11 -17 -25 -22 -57 -22 -38 0 -46 -5 -99 -62 -32 -35 -58 -68
-58 -74 0 -6 -7 -17 -15 -24 -9 -8 -15 -30 -15 -60 0 -57 21 -81 170 -201 107
-87 190 -170 214 -217 10 -20 24 -32 37 -32 18 0 97 55 124 87 11 12 126 97
271 198 47 33 111 78 142 101 155 110 252 155 300 138 63 -22 35 -79 -73 -150
-44 -29 -118 -80 -165 -113 -47 -33 -129 -90 -182 -126 -54 -36 -103 -71 -110
-78 -7 -7 -49 -40 -93 -74 -99 -76 -145 -118 -145 -134 0 -6 4 -28 10 -48 44
-165 52 -275 25 -351 -8 -23 -15 -54 -15 -67 0 -64 -106 -308 -185 -427 -59
-90 -175 -198 -253 -237 -61 -30 -76 -33 -158 -34 -84 0 -93 2 -128 28 -20 16
-49 47 -64 70 -25 39 -27 49 -26 152 1 145 24 215 122 379 72 121 183 257 324
403 l119 122 -17 33 c-25 49 -365 378 -390 378 -7 0 -25 -15 -41 -34 -63 -76
-219 -197 -313 -246 -25 -12 -57 -29 -72 -37 -40 -20 -204 -19 -227 1 -10 9
-22 16 -27 16 -13 0 -99 90 -114 120 -39 75 -53 146 -56 290 -2 117 -6 146
-18 148 -16 3 -50 -30 -70 -68 -81 -157 -223 -371 -303 -456 -88 -92 -137
-124 -192 -124 -66 0 -119 33 -150 95 -24 46 -26 58 -26 195 0 80 4 161 8 181
7 27 5 37 -5 41 -7 2 -98 2 -202 -1 l-188 -6 -36 -40 c-43 -49 -115 -198 -137
-285 -10 -36 -20 -116 -24 -178 -6 -109 -7 -115 -34 -138 -28 -24 -80 -32
-103 -16 -6 4 -19 22 -28 41 -16 31 -17 47 -5 205 16 227 16 228 3 233 -7 2
-46 -30 -87 -72 -41 -41 -80 -75 -86 -75 -10 0 -17 21 -23 68 -6 47 -23 25
-26 -33 -2 -32 -8 -66 -15 -74 -7 -8 -46 -30 -87 -49 -66 -30 -85 -34 -156
-34 -72 0 -85 3 -130 30 -120 75 -188 239 -183 442 5 180 -15 171 -138 -60
-82 -155 -260 -380 -349 -441 -60 -41 -125 -41 -183 1 -23 17 -46 43 -51 58
-6 15 -15 35 -20 44 -6 10 -10 55 -10 101 0 46 -3 86 -6 89 -3 3 -37 -25 -76
-63 -39 -38 -81 -75 -94 -82 -102 -55 -189 -87 -235 -87 -81 0 -213 70 -275
146 -52 63 -94 172 -94 245 0 103 -26 78 -125 -121 -97 -193 -173 -298 -231
-320 -31 -12 -132 14 -161 42 -35 33 -49 138 -34 260 7 55 16 109 21 121 4 12
18 54 30 92 25 80 98 229 144 295 17 24 36 51 41 59 6 8 42 47 81 87 70 71
123 106 199 130 53 17 61 17 129 -1z m5188 -350 c10 -74 26 -155 43 -215 34
-114 35 -123 20 -147 -9 -12 -29 -30 -47 -39 -29 -15 -32 -15 -44 1 -7 9 -45
51 -83 91 -39 41 -71 83 -71 94 0 11 -8 35 -17 55 -9 19 -14 38 -10 41 3 4 25
10 49 14 94 18 98 22 98 93 0 70 4 79 35 75 16 -3 21 -13 27 -63z m-3139 -821
c4 -71 7 -144 7 -161 0 -19 5 -33 13 -34 6 -1 23 -2 37 -2 22 -2 25 -7 25 -37
0 -32 -3 -35 -32 -38 l-33 -3 0 -117 c0 -69 7 -143 15 -181 22 -90 16 -101
-51 -101 -36 0 -54 4 -55 13 -3 31 2 269 8 325 5 59 4 64 -16 69 -32 8 -25 55
9 63 l24 6 -3 139 c-3 141 7 201 32 193 8 -3 14 -45 20 -134z m176 -698 c9
-11 10 -20 1 -36 -9 -17 -7 -25 9 -47 25 -31 27 -69 5 -81 -14 -8 -12 -10 10
-16 27 -7 36 -33 13 -42 -8 -3 -11 -18 -9 -43 3 -30 -1 -43 -20 -60 -22 -21
-22 -23 -5 -35 9 -7 17 -20 17 -28 0 -34 -22 -38 -207 -38 l-183 0 -6 27 c-12
46 12 53 150 47 67 -3 135 -1 151 4 27 8 30 13 28 45 -2 30 3 40 23 54 19 12
22 18 12 24 -7 5 -21 9 -31 9 -10 0 -26 7 -35 16 -13 13 -30 15 -89 12 -41 -3
-79 -10 -86 -17 -6 -6 -25 -11 -41 -11 -17 0 -38 -5 -46 -10 -23 -15 7 -30 45
-22 54 11 69 8 81 -18 23 -45 -16 -64 -72 -35 -30 15 -54 6 -54 -21 0 -20 -28
-17 -38 4 -5 9 -15 41 -23 70 -11 46 -11 55 1 63 8 5 21 6 29 4 18 -7 51 4 51
16 0 5 -18 9 -40 9 -45 0 -51 14 -23 57 10 14 17 42 18 62 l0 36 152 1 c84 0
156 4 160 7 11 12 40 8 52 -7z m-71 -244 c16 -21 15 -27 -4 -46 -28 -29 -65
-32 -86 -6 -22 27 -23 44 -2 65 20 19 72 12 92 -13z m-179 -1169 c-1 -527 0
-965 2 -973 3 -13 -22 -15 -175 -18 -99 -1 -183 1 -187 5 -4 5 3 42 17 83 42
129 44 136 44 166 0 16 7 42 15 58 8 15 15 45 15 65 1 20 7 47 15 61 8 14 15
43 15 65 0 22 7 51 15 65 8 14 14 46 15 71 0 26 7 63 15 82 8 20 15 59 15 87
0 28 5 61 11 72 11 20 15 54 38 268 5 47 13 110 19 140 6 30 15 136 21 235 15
246 29 404 36 415 3 6 17 10 31 10 l25 0 -2 -957z m202 899 c4 -30 10 -120 14
-200 3 -81 11 -181 17 -222 5 -41 14 -118 18 -170 16 -179 30 -292 40 -310 6
-10 10 -41 10 -68 0 -27 7 -69 15 -92 8 -23 15 -62 15 -87 0 -24 7 -60 15 -80
8 -19 15 -54 15 -77 1 -22 7 -52 15 -66 8 -14 14 -42 15 -63 0 -21 5 -48 11
-59 6 -11 15 -44 19 -72 10 -70 57 -242 72 -266 9 -14 10 -25 2 -37 -8 -14
-33 -16 -176 -16 l-166 -1 -6 948 c-3 521 -8 951 -11 956 -11 19 -36 -3 -34
-29 6 -59 -39 -103 -61 -61 -10 19 -14 113 -5 122 3 3 40 5 83 4 l77 -1 6 -53z
m-117 -128 c13 -5 16 -22 16 -79 0 -89 -5 -105 -35 -105 -30 0 -35 16 -35 104
0 87 7 98 54 80z m-3018 -41 c3 -16 9 -37 14 -48 4 -11 16 -42 25 -70 37 -105
222 -453 247 -463 4 -2 8 -8 8 -12 0 -19 151 -218 232 -306 53 -58 54 -80 8
-107 -16 -10 -44 -33 -62 -52 -18 -19 -42 -35 -53 -35 -14 0 -55 46 -142 163
-116 155 -182 249 -197 278 -3 8 -15 28 -26 44 -11 17 -24 39 -30 50 -6 11
-19 34 -30 50 -11 17 -23 37 -26 45 -4 8 -14 23 -22 32 -12 14 -14 36 -8 110
3 51 9 140 12 198 3 58 7 115 10 128 6 31 32 28 40 -5z m3022 -195 c15 -15 16
-132 2 -159 -12 -21 -49 -26 -51 -6 -7 63 -4 154 4 165 12 15 30 15 45 0z m-1
-220 c14 -17 10 -165 -4 -179 -6 -6 -19 -9 -29 -7 -17 3 -19 13 -17 90 1 48 4
92 8 98 9 14 30 13 42 -2z m11 -315 c3 -80 2 -83 -22 -89 -14 -3 -28 -4 -33
-1 -6 4 -9 155 -4 175 1 2 13 2 29 0 27 -3 27 -4 30 -85z m-3 -228 l0 -90 -27
-3 c-26 -3 -26 -3 -30 70 -5 108 -2 120 30 116 l27 -3 0 -90z m-2261 -160 c51
-52 98 -95 105 -95 6 0 17 -11 23 -25 10 -23 8 -29 -15 -53 l-27 -27 -41 48
c-22 26 -45 47 -50 47 -5 0 -28 -21 -51 -47 -24 -26 -76 -81 -115 -122 l-73
-76 -31 31 -30 31 123 122 123 122 -47 40 c-27 23 -48 45 -48 50 0 13 38 49
51 49 5 0 52 -43 103 -95z m2253 17 c13 -8 20 -142 9 -160 -9 -15 -56 -16 -57
-2 -3 59 0 151 6 159 7 13 25 14 42 3z m2 -226 c8 -9 11 -45 9 -98 -3 -82 -3
-83 -30 -86 l-28 -3 0 100 c0 92 2 101 19 101 10 0 24 -6 30 -14z m10 -244 c5
-9 11 -46 13 -82 l3 -65 -42 -3 -43 -3 0 63 c0 87 7 108 36 108 13 0 28 -8 33
-18z"/>
<path d="M3965 11889 c-16 -5 -77 -15 -135 -24 -102 -15 -200 -31 -327 -54
-35 -6 -74 -16 -89 -21 -14 -6 -41 -10 -60 -10 -19 0 -51 -7 -71 -15 -19 -8
-48 -15 -63 -15 -15 0 -47 -7 -70 -15 -23 -8 -54 -15 -69 -15 -14 0 -46 -6
-71 -14 -25 -8 -76 -21 -115 -30 -38 -8 -104 -23 -145 -32 -86 -19 -349 -85
-430 -109 -30 -9 -71 -20 -90 -25 -19 -4 -48 -13 -65 -18 -16 -6 -57 -18 -90
-27 -91 -26 -156 -46 -195 -60 -19 -7 -80 -27 -135 -45 -166 -54 -300 -117
-346 -163 l-28 -28 19 -32 c11 -17 42 -48 70 -67 27 -19 78 -56 113 -81 35
-26 112 -82 172 -124 172 -123 484 -358 545 -412 190 -167 394 -384 521 -555
69 -93 178 -262 206 -318 4 -8 18 -35 33 -60 14 -25 39 -74 54 -110 56 -126
77 -175 85 -195 5 -11 16 -37 25 -58 9 -21 16 -42 16 -48 0 -6 6 -25 14 -42
71 -166 120 -365 151 -612 9 -77 20 -147 24 -155 5 -8 18 -16 30 -18 20 -3 21
0 21 110 0 62 7 156 15 208 8 52 15 120 15 150 0 30 7 87 15 125 8 39 15 93
15 120 0 28 5 66 10 86 6 20 15 79 20 130 9 89 15 139 40 319 5 41 19 147 30
235 28 216 67 479 91 605 6 30 14 84 19 120 5 36 13 81 19 100 6 19 11 51 11
72 0 20 5 49 11 65 6 15 14 55 19 88 4 33 13 87 20 120 6 33 18 92 25 130 7
39 20 104 29 145 8 41 24 122 35 180 11 58 30 148 42 200 11 52 25 113 30 135
5 22 15 58 23 80 27 72 15 99 -39 84z m-119 -171 c12 -11 12 -21 4 -42 -5 -15
-10 -39 -10 -53 0 -23 -7 -58 -45 -233 -23 -105 -56 -271 -65 -325 -5 -27 -16
-90 -24 -140 -9 -49 -20 -115 -26 -145 -5 -30 -16 -93 -25 -140 -28 -143 -73
-423 -100 -610 -8 -58 -22 -154 -31 -215 -9 -60 -18 -126 -20 -145 -3 -19 -11
-84 -19 -145 -8 -60 -22 -164 -30 -230 -28 -216 -43 -259 -76 -229 -11 10 -19
23 -19 31 0 8 -9 26 -20 41 -19 26 -51 102 -71 170 -12 40 -130 283 -161 333
-13 20 -38 63 -57 95 -102 173 -290 411 -459 579 -129 129 -272 261 -306 284
-11 8 -37 28 -57 45 -20 17 -78 60 -128 96 -50 36 -135 98 -189 139 -53 40
-113 84 -132 97 -127 85 -200 146 -200 167 0 8 8 21 18 29 25 23 209 97 257
105 22 3 45 9 50 13 14 11 148 53 270 85 55 15 114 30 130 35 17 5 66 18 110
30 44 12 112 31 150 42 39 11 97 26 130 33 33 7 87 20 120 30 33 9 136 32 228
51 93 18 172 36 177 39 8 5 277 58 390 76 36 6 76 14 90 19 37 12 130 4 146
-12z"/>
<path d="M9699 8423 c-19 -21 -61 -69 -94 -108 -32 -38 -61 -72 -65 -75 -15
-12 -101 -131 -137 -190 -69 -113 -106 -209 -118 -304 -20 -159 48 -188 180
-76 83 70 156 183 230 355 38 90 61 198 71 343 7 87 6 92 -13 92 -11 0 -35
-17 -54 -37z m-179 -482 c-6 -12 -15 -21 -20 -21 -16 0 -11 42 8 63 17 19 17
19 20 -1 2 -12 -2 -30 -8 -41z"/>
<path d="M6635 7831 c-11 -18 20 -25 115 -25 97 -1 135 8 109 25 -19 12 -216
11 -224 0z"/>
<path d="M6627 7754 c-19 -20 4 -24 129 -24 104 0 135 3 132 13 -5 13 -248 24
-261 11z"/>
<path d="M8345 5817 c-53 -26 -115 -93 -147 -159 -27 -55 -16 -119 27 -167 18
-20 47 -63 65 -96 51 -92 71 -115 123 -142 46 -23 52 -24 100 -12 29 7 68 21
88 30 45 22 106 90 137 153 35 69 20 124 -57 208 -31 35 -67 80 -80 100 -60
99 -159 132 -256 85z m173 -94 c4 -36 -10 -47 -72 -56 -57 -9 -88 -33 -84 -65
3 -23 8 -27 40 -30 20 -2 50 4 67 12 16 9 52 16 79 16 43 0 53 -4 80 -35 38
-41 42 -87 11 -139 -34 -58 -123 -106 -195 -106 -39 0 -46 3 -54 26 -16 42 3
64 56 64 84 0 156 57 122 97 -14 17 -80 11 -137 -13 -54 -23 -78 -17 -121 26
-55 55 -55 91 0 153 54 60 103 87 160 84 43 -2 45 -4 48 -34z"/>
<path d="M4973 5711 c-110 -28 -229 -185 -219 -288 10 -106 67 -201 151 -256
68 -44 223 -75 240 -47 3 5 24 14 46 20 48 13 120 83 154 150 74 147 1 326
-162 400 -52 24 -157 34 -210 21z m175 -100 c55 -28 119 -102 133 -153 22 -81
-20 -172 -103 -224 -31 -20 -53 -26 -102 -26 -35 0 -73 6 -87 13 -95 54 -139
118 -139 201 0 75 40 138 120 191 36 23 131 22 178 -2z"/>
<path d="M5005 5536 c-17 -7 -39 -26 -49 -41 -22 -34 -23 -117 -1 -151 17 -26
84 -64 113 -64 31 0 81 30 107 64 52 68 16 173 -67 197 -43 12 -67 11 -103 -5z"/>
<path d="M7617 5458 c-72 -18 -95 -32 -145 -90 -54 -60 -57 -83 -28 -189 50
-184 93 -261 170 -308 39 -25 72 -17 118 26 22 21 41 27 107 34 91 9 126 27
155 82 18 33 18 35 -3 102 -11 38 -21 84 -21 104 0 86 -45 166 -125 221 -52
36 -134 43 -228 18z m190 -94 c60 -46 91 -137 59 -173 -7 -9 -17 -26 -20 -38
-7 -22 12 -40 78 -73 53 -27 47 -54 -16 -65 -34 -6 -41 -3 -87 40 l-49 46 -42
-12 c-23 -7 -44 -19 -47 -26 -3 -7 4 -35 15 -61 20 -44 20 -48 4 -60 -9 -7
-30 -12 -46 -10 -32 3 -30 -1 -71 143 -10 33 -21 64 -26 70 -5 5 -9 18 -9 30
-1 11 -9 38 -20 60 -26 54 -26 95 -1 95 11 0 32 5 48 12 136 56 180 60 230 22z"/>
<path d="M7685 5298 c-56 -10 -75 -22 -75 -48 0 -32 39 -110 54 -110 9 0 40
11 69 24 61 27 77 57 55 103 -17 34 -42 41 -103 31z"/>
<path d="M5716 5391 c-50 -24 -86 -94 -86 -166 0 -63 26 -274 36 -300 13 -33
77 -93 115 -109 32 -13 40 -13 81 2 52 18 74 12 136 -40 18 -16 42 -28 53 -28
70 0 161 83 237 216 91 160 102 220 52 277 -39 45 -110 65 -143 42 -33 -23
-52 -19 -102 25 -50 43 -74 48 -147 29 -48 -13 -81 -2 -147 46 -40 29 -36 29
-85 6z m77 -63 c13 -11 17 -40 21 -162 3 -82 7 -150 9 -152 9 -9 39 38 92 143
32 63 65 115 75 118 9 3 29 1 42 -4 25 -9 26 -12 33 -155 5 -108 10 -146 20
-146 7 0 41 56 75 124 35 69 69 127 76 130 25 10 74 -6 74 -23 0 -13 -68 -126
-122 -203 -6 -10 -29 -48 -49 -85 -44 -80 -57 -91 -96 -77 l-28 9 -8 135 c-4
74 -10 141 -12 149 -7 19 -29 0 -52 -47 -109 -217 -119 -227 -167 -179 -21 21
-24 37 -30 138 -4 63 -14 148 -23 190 -9 42 -13 84 -10 93 8 19 56 21 80 4z"/>
<path d="M6840 5320 c-51 -9 -89 -32 -140 -85 l-45 -46 0 -116 c-1 -221 20
-287 112 -347 43 -28 48 -29 136 -23 109 6 166 26 207 73 34 40 40 95 14 132
-13 19 -19 61 -25 182 0 14 2 46 6 72 7 45 5 50 -29 93 -21 25 -47 50 -59 57
-24 13 -122 17 -177 8z m203 -111 c5 -9 7 -28 3 -42 -6 -26 -7 -26 -109 -29
l-102 -3 -3 -49 -3 -49 58 8 c32 4 78 8 103 9 42 1 45 -1 48 -28 2 -16 -1 -34
-8 -40 -6 -6 -52 -13 -103 -16 l-92 -5 3 -35 c2 -19 9 -41 14 -48 11 -13 18
-12 147 10 70 12 81 6 81 -43 0 -38 -23 -53 -70 -45 -22 3 -83 1 -135 -5 -53
-6 -99 -8 -103 -5 -3 4 -8 60 -9 124 -2 64 -8 139 -13 165 -14 66 -12 117 3
122 13 5 244 23 266 21 8 0 18 -8 24 -17z"/>
</g>
</svg>
