<?xml version="1.0" standalone="no"?>
<!DOCTYPE svg PUBLIC "-//W3C//DTD SVG 20010904//EN"
 "http://www.w3.org/TR/2001/REC-SVG-20010904/DTD/svg10.dtd">
<svg version="1.0" xmlns="http://www.w3.org/2000/svg"
 width="500.000000pt" height="500.000000pt" viewBox="0 0 500.000000 500.000000"
 preserveAspectRatio="xMidYMid meet">
<metadata>
Created by potrace 1.10, written by Peter Selinger 2001-2011
</metadata>
<g transform="translate(0.000000,500.000000) scale(0.050000,-0.050000)"
fill="#000000" stroke="none">
<path d="M4220 7809 c-16 -3 -97 -16 -180 -30 -364 -59 -921 -322 -813 -383
18 -10 33 -31 33 -47 0 -38 13 -37 80 11 573 408 1634 410 2223 4 l88 -60 45
50 c56 63 58 56 -41 119 -401 254 -1064 409 -1435 336z"/>
<path d="M2148 7396 c-6 -9 -44 -16 -84 -16 -174 -1 -804 -173 -896 -245 -82
-65 -56 -111 142 -259 457 -341 586 -631 564 -1271 -10 -291 -7 -345 17 -345
36 0 40 20 78 430 47 491 195 1478 242 1608 17 48 665 -8 720 -62 6 -6 -24
-62 -68 -123 -127 -183 -230 -447 -342 -883 -15 -61 -47 -102 -131 -170 -252
-206 -350 -480 -171 -480 119 0 232 156 309 424 37 130 108 191 345 299 161
73 149 105 106 -273 -45 -388 -57 -780 -25 -812 42 -42 63 1 54 107 -5 58 12
321 37 585 l45 480 78 6 c63 6 75 1 65 -24 -120 -314 -37 -911 138 -984 204
-85 373 121 670 817 69 162 129 292 132 288 4 -3 -2 -73 -12 -155 -50 -379 26
-1017 111 -933 7 7 0 92 -14 189 -33 212 -32 609 2 936 34 327 34 340 3 340
-16 0 -47 -55 -72 -130 -180 -526 -508 -1166 -651 -1265 -369 -259 -325 1030
62 1788 36 71 36 79 6 91 -70 26 -224 -315 -311 -689 l-47 -205 -77 0 c-70 0
-76 4 -66 45 30 119 113 655 113 729 0 140 -65 178 -169 98 l-64 -48 -108 36
c-168 57 -709 113 -731 76z m-44 -180 c-32 -127 -118 -656 -144 -886 -36 -308
-41 -320 -72 -171 -63 302 -233 541 -543 765 -219 158 -187 182 445 324 362
81 343 83 314 -32z m1056 29 c0 -28 -27 -197 -59 -373 -33 -177 -62 -347 -65
-378 -5 -48 -23 -63 -125 -104 -65 -27 -163 -76 -217 -110 -128 -79 -127 -81
-56 164 146 502 522 1079 522 801z m-723 -1320 c-63 -171 -148 -285 -211 -285
-76 0 4 173 150 325 99 102 111 95 61 -40z"/>
<path d="M5144 7362 c-251 -86 -454 -285 -605 -590 -141 -284 -162 -512 -49
-512 57 0 65 34 17 70 -84 61 90 491 286 708 135 149 151 152 115 17 -37 -140
-108 -622 -108 -738 0 -97 -81 -173 -253 -238 -86 -33 -58 -79 48 -79 196 -1
185 20 185 -349 0 -325 20 -451 70 -451 21 0 24 71 15 360 -6 208 -3 360 7
360 10 0 171 -123 358 -272 417 -334 402 -326 504 -262 169 107 298 322 546
909 102 241 109 243 81 23 -38 -306 3 -824 71 -897 47 -50 49 -14 14 264 -33
258 -33 289 2 678 48 523 47 507 15 507 -16 0 -42 -47 -62 -110 -168 -539
-571 -1277 -717 -1313 -308 -78 -236 1116 108 1797 49 96 36 144 -24 94 -202
-167 -444 -1297 -361 -1686 l16 -79 -116 100 c-106 91 -334 267 -412 317 -54
35 -18 202 54 250 197 128 476 465 565 680 133 324 -56 550 -370 442z m278
-100 c102 -103 77 -235 -93 -492 -99 -150 -416 -489 -437 -468 -19 19 125 923
151 947 82 77 307 84 379 13z m-622 -1182 c0 -26 -13 -40 -39 -40 -54 0 -69
33 -26 58 52 30 65 27 65 -18z"/>
<path d="M5860 7249 c-29 -76 -31 -73 109 -217 71 -74 172 -198 224 -277 l96
-143 28 92 29 92 -97 127 c-113 147 -327 377 -353 377 -9 0 -26 -23 -36 -51z"/>
<path d="M7215 7260 c-347 -104 -779 -841 -645 -1099 37 -73 106 -94 355 -110
213 -13 282 -32 350 -96 61 -57 63 -54 -89 -177 -316 -256 -409 -518 -183
-518 186 0 407 274 407 506 l1 115 131 105 c197 157 378 325 378 351 0 48 -47
18 -256 -161 -118 -101 -229 -196 -248 -212 -31 -26 -41 -22 -96 33 -78 78
-226 123 -401 123 -345 0 -395 118 -207 489 344 678 832 788 747 168 -43 -316
-45 -357 -21 -357 32 0 56 64 91 244 83 419 -52 675 -314 596z m131 -1549
c-32 -175 -225 -391 -349 -391 -118 0 -30 171 193 376 144 131 178 135 156 15z"/>
<path d="M2655 6925 c-169 -234 -259 -415 -357 -713 -71 -214 -71 -213 47
-100 78 75 101 115 135 234 64 222 140 432 203 559 70 140 62 145 -28 20z"/>
<path d="M6491 6107 c7 -31 22 -88 32 -127 145 -531 -74 -1338 -485 -1788
l-104 -115 51 -51 51 -51 76 85 c374 414 588 959 588 1496 0 227 -32 451 -66
462 -13 4 -54 39 -90 78 l-66 69 13 -58z"/>
<path d="M4473 5946 c-7 -7 -13 -59 -13 -116 0 -57 -7 -110 -14 -118 -8 -8
-12 -80 -9 -160 6 -131 2 -148 -33 -157 -63 -16 -82 -289 -22 -326 17 -11 15
-37 -33 -479 -28 -257 -107 -670 -151 -784 -25 -67 -1 -72 323 -60 338 12 311
-13 251 227 -96 379 -182 1076 -136 1105 12 7 23 31 24 53 5 114 4 163 -6 199
-6 22 -12 47 -12 55 -1 8 -19 15 -39 15 -26 0 -42 19 -50 63 -19 93 -16 177 7
177 28 0 25 75 -3 84 -12 4 -27 55 -32 112 -10 102 -26 136 -52 110z m47 -426
c0 -98 -6 -120 -33 -120 -26 0 -30 14 -20 75 7 41 13 95 13 120 0 25 9 45 20
45 11 0 20 -53 20 -120z m90 -160 c8 -12 -30 -20 -100 -20 -70 0 -108 8 -100
20 7 11 52 20 100 20 48 0 93 -9 100 -20z m19 -59 c7 -10 -43 -17 -119 -16
-71 1 -130 9 -130 18 0 23 235 21 249 -2z m-54 -55 c-30 -5 -84 -5 -120 0 -36
4 -11 8 55 8 66 0 95 -4 65 -8z m45 -125 c0 -10 -18 -24 -41 -31 -53 -17 -202
8 -188 32 15 24 229 23 229 -1z m-160 -701 l0 -640 -112 0 c-107 0 -112 2
-100 45 66 227 172 918 172 1116 0 66 9 119 20 119 13 0 20 -227 20 -640z
m139 385 c23 -247 99 -721 143 -893 27 -111 32 -104 -87 -117 l-95 -10 0 641
c0 352 4 637 8 632 4 -4 18 -118 31 -253z m-79 85 c0 -38 -9 -70 -20 -70 -22
0 -28 106 -7 127 23 23 27 15 27 -57z m0 -150 c0 -33 -9 -60 -20 -60 -11 0
-20 27 -20 60 0 33 9 60 20 60 11 0 20 -27 20 -60z m0 -160 c0 -33 -9 -60 -20
-60 -11 0 -20 27 -20 60 0 33 9 60 20 60 11 0 20 -27 20 -60z m0 -300 c0 -33
-9 -60 -20 -60 -11 0 -20 27 -20 60 0 33 9 60 20 60 11 0 20 -27 20 -60z m0
-160 c0 -33 -9 -60 -20 -60 -11 0 -20 27 -20 60 0 33 9 60 20 60 11 0 20 -27
20 -60z m0 -140 c0 -33 -9 -60 -20 -60 -11 0 -20 27 -20 60 0 33 9 60 20 60
11 0 20 -27 20 -60z"/>
<path d="M2272 5536 l-58 -21 13 -173 c32 -427 224 -872 534 -1239 l124 -147
50 50 50 50 -109 127 c-311 368 -479 762 -510 1202 -6 96 -17 174 -24 173 -7
0 -38 -11 -70 -22z"/>
<path d="M3080 4030 c0 -16 9 -30 20 -30 35 0 22 -37 -40 -107 -61 -70 -73
-103 -43 -121 9 -6 46 29 82 77 57 76 71 85 103 65 73 -46 66 12 -10 78 -86
75 -112 83 -112 38z"/>
<path d="M5765 4015 c-115 -55 -62 -193 58 -151 100 35 102 -28 2 -66 -40 -15
-46 -25 -28 -43 19 -19 36 -18 77 5 148 84 93 205 -69 152 -65 -21 -59 35 6
65 28 13 46 32 39 43 -15 24 -27 24 -85 -5z"/>
<path d="M3484 3709 c-99 -70 -31 -249 96 -249 131 0 189 159 87 239 -62 49
-122 52 -183 10z m156 -59 c47 -57 8 -133 -66 -126 -65 6 -93 58 -66 127 14
38 100 37 132 -1z"/>
<path d="M5256 3709 l-53 -29 52 -120 c48 -113 126 -176 94 -78 -19 59 26 82
85 43 34 -22 54 -25 69 -10 15 15 8 28 -22 44 -31 17 -39 35 -30 64 29 92 -88
144 -195 86z m144 -60 c0 -43 -81 -79 -102 -46 -25 39 -22 53 16 74 41 23 86
8 86 -28z"/>
<path d="M4795 3581 c-99 -19 -98 -15 -73 -157 22 -122 23 -124 85 -122 99 3
154 25 136 53 -11 18 -33 19 -79 6 -39 -11 -68 -11 -75 0 -19 31 10 59 62 59
30 0 49 12 49 30 0 22 -18 29 -63 25 -89 -7 -96 40 -8 56 57 11 112 75 56 67
-8 -2 -49 -9 -90 -17z"/>
<path d="M4021 3555 c0 -14 12 -74 26 -135 33 -140 74 -152 122 -36 l36 86 20
-95 c26 -128 61 -121 135 24 69 138 70 141 32 141 -16 0 -44 -41 -63 -90 -40
-105 -52 -102 -68 15 -15 116 -65 123 -101 15 -38 -115 -53 -115 -68 0 -12 89
-74 154 -71 75z"/>
</g>
</svg>
